<svg width="1200" height="360" viewBox="0 0 1200 360" fill="none" xmlns="http://www.w3.org/2000/svg" role="img" aria-labelledby="title desc">
  <title id="title">brave dev extension</title>
  <desc id="desc">A dark banner for the Brave Dev Extension README with browser, terminal, and developer-tool motifs.</desc>
  <defs>
    <linearGradient id="bg" x1="0" y1="0" x2="1200" y2="360" gradientUnits="userSpaceOnUse">
      <stop offset="0" stop-color="#16171d"/>
      <stop offset="0.55" stop-color="#20232b"/>
      <stop offset="1" stop-color="#2b201a"/>
    </linearGradient>
    <linearGradient id="accent" x1="187" y1="48" x2="1044" y2="309" gradientUnits="userSpaceOnUse">
      <stop offset="0" stop-color="#ff6a1a"/>
      <stop offset="0.52" stop-color="#f4b942"/>
      <stop offset="1" stop-color="#6aa8ff"/>
    </linearGradient>
    <linearGradient id="panel" x1="185" y1="89" x2="995" y2="315" gradientUnits="userSpaceOnUse">
      <stop offset="0" stop-color="#252934"/>
      <stop offset="1" stop-color="#181a21"/>
    </linearGradient>
    <filter id="shadow" x="120" y="34" width="960" height="302" filterUnits="userSpaceOnUse" color-interpolation-filters="sRGB">
      <feDropShadow dx="0" dy="18" stdDeviation="24" flood-color="#000000" flood-opacity="0.34"/>
    </filter>
  </defs>

  <rect width="1200" height="360" rx="0" fill="url(#bg)"/>
  <path d="M0 286C132 237 230 245 340 272C472 304 591 333 726 282C841 239 949 200 1200 257V360H0V286Z" fill="#101116" opacity="0.72"/>
  <path d="M0 0H1200V16H0V0Z" fill="url(#accent)"/>

  <g filter="url(#shadow)">
    <rect x="154" y="62" width="892" height="246" rx="22" fill="url(#panel)" stroke="#3d4350"/>
    <rect x="154" y="62" width="892" height="42" rx="22" fill="#303542"/>
    <path d="M154 86C154 72.745 164.745 62 178 62H1022C1035.25 62 1046 72.745 1046 86V105H154V86Z" fill="#303542"/>
    <circle cx="184" cy="84" r="6" fill="#ff6a1a"/>
    <circle cx="205" cy="84" r="6" fill="#f4b942"/>
    <circle cx="226" cy="84" r="6" fill="#6aa8ff"/>
    <rect x="262" y="76" width="380" height="16" rx="8" fill="#17191f" stroke="#444b59"/>
  </g>

  <g opacity="0.96">
    <rect x="202" y="139" width="156" height="116" rx="14" fill="#17191f" stroke="#444b59"/>
    <path d="M229 177L257 149L285 177" stroke="#ff7a27" stroke-width="10" stroke-linecap="round" stroke-linejoin="round"/>
    <path d="M333 217L305 245L277 217" stroke="#6aa8ff" stroke-width="10" stroke-linecap="round" stroke-linejoin="round"/>
    <path d="M287 145L255 249" stroke="#f4b942" stroke-width="10" stroke-linecap="round"/>
  </g>

  <g>
    <text x="405" y="171" fill="#f8fafc" font-family="Inter, ui-sans-serif, system-ui, -apple-system, BlinkMacSystemFont, Segoe UI, sans-serif" font-size="56" font-weight="800" letter-spacing="0">brave dev extension</text>
    <text x="407" y="213" fill="#aeb7c7" font-family="Inter, ui-sans-serif, system-ui, -apple-system, BlinkMacSystemFont, Segoe UI, sans-serif" font-size="22" font-weight="500" letter-spacing="0">side panel tools for local AI, page inspection, recording, and browser workflows</text>
  </g>

  <g transform="translate(408 238)">
    <rect x="0" y="0" width="95" height="32" rx="16" fill="#ff6a1a" fill-opacity="0.16" stroke="#ff8a45"/>
    <text x="48" y="21" text-anchor="middle" fill="#ffb68a" font-family="Inter, ui-sans-serif, system-ui, sans-serif" font-size="13" font-weight="700">BRAVE</text>
    <rect x="110" y="0" width="103" height="32" rx="16" fill="#6aa8ff" fill-opacity="0.14" stroke="#7fb5ff"/>
    <text x="162" y="21" text-anchor="middle" fill="#bdd7ff" font-family="Inter, ui-sans-serif, system-ui, sans-serif" font-size="13" font-weight="700">MV3</text>
    <rect x="228" y="0" width="118" height="32" rx="16" fill="#f4b942" fill-opacity="0.14" stroke="#f6c65f"/>
    <text x="287" y="21" text-anchor="middle" fill="#ffe2a2" font-family="Inter, ui-sans-serif, system-ui, sans-serif" font-size="13" font-weight="700">PLASMO</text>
  </g>
</svg>
